HIERARCHY
ROOT Root
{
	OFFSET 0.00 0.00 0.00
	CHANNELS 6 Xposition Yposition Zposition Xrotation Yrotation Zrotation
	JOINT L_Femur
	{
		OFFSET 3.93700 0.00000 0.00000
		CHANNELS 3 Xrotation Zrotation Yrotation
		JOINT L_Tibia
		{
			OFFSET 0.00000 -18.44568 0.00000
			CHANNELS 1 Xrotation
			JOINT L_Foot
			{
				OFFSET -0.00000 -15.49322 0.19672
				CHANNELS 2 Xrotation Zrotation
				JOINT L_Toe
				{
					OFFSET 0.00000 -0.82039 5.66291
					CHANNELS 1 Xrotation
					End Site
					{
						OFFSET 0.00000 0.00000 1.71250
					}
				}
			}
		}
	}
	JOINT R_Femur
	{
		OFFSET -3.93700 0.00000 0.00000
		CHANNELS 3 Xrotation Zrotation Yrotation
		JOINT R_Tibia
		{
			OFFSET -0.00000 -18.44568 -0.00000
			CHANNELS 1 Xrotation
			JOINT R_Foot
			{
				OFFSET -0.00000 -15.49322 0.19672
				CHANNELS 2 Xrotation Zrotation
				JOINT R_Toe
				{
					OFFSET 0.00000 -0.96513 5.62412
					CHANNELS 1 Xrotation
					End Site
					{
						OFFSET 0.00000 0.00000 1.44139
					}
				}
			}
		}
	}
	JOINT LowerBack
	{
		OFFSET 0.00000 0.03937 0.00000
		CHANNELS 3 Xrotation Zrotation Yrotation
		JOINT Thorax
		{
			OFFSET 0.00000 8.42896 0.00000
			CHANNELS 3 Xrotation Zrotation Yrotation
			JOINT Neck
			{
				OFFSET 0.00000 7.29157 0.00000
				CHANNELS 3 Xrotation Zrotation Yrotation
				JOINT Head
				{
					OFFSET 0.00000 4.22110 0.00000
					CHANNELS 3 Xrotation Yrotation Zrotation
					End Site
					{
						OFFSET 0.00000 4.22110 0.00000
					}
				}
			}
			JOINT L_Collar
			{
				OFFSET 0.00000 7.29157 0.00000
				CHANNELS 2 Yrotation Zrotation
				JOINT L_Humerus
				{
					OFFSET 5.90550 0.00000 0.00000
					CHANNELS 3 Xrotation Yrotation Zrotation
					JOINT L_Elbow
					{
						OFFSET 11.59585 0.00000 0.00000
						CHANNELS 2 Yrotation Xrotation
						JOINT L_Wrist
						{
							OFFSET 8.38509 0.00000 0.00000
							CHANNELS 2 Zrotation Yrotation
							End Site
							{
								OFFSET 3.93700 0.00000 0.00000
							}
						}
					}
				}
			}
			JOINT R_Collar
			{
				OFFSET 0.00000 7.29157 0.00000
				CHANNELS 2 Yrotation Zrotation
				JOINT R_Humerus
				{
					OFFSET -5.90550 0.00000 0.00000
					CHANNELS 3 Xrotation Yrotation Zrotation
					JOINT R_Elbow
					{
						OFFSET -11.59585 -0.00000 0.00000
						CHANNELS 2 Yrotation Xrotation
						JOINT R_Wrist
						{
							OFFSET -8.38509 -0.00000 0.00000
							CHANNELS 2 Zrotation Yrotation
							End Site
							{
								OFFSET -5.41338 0.00000 0.00000
							}
						}
					}
				}
			}
		}
	}
}
MOTION
Frames: 12
Frame Time: 0.008333
 6.1206 38.1176 -10.9010 13.4000 4.7145 1.6417 -19.7890 4.9965 10.4215 24.8117 -3.3454 -11.3043 8.1273 -16.9586 -6.9684 -28.5356 19.1081 -7.2322 11.9919 8.1797 -17.3944 -5.3693 -0.4097 -3.9493 -0.5839 -1.4081 22.5946 6.8704 -7.8636 -16.5883 -8.9589 -1.3755 -0.0157 0.3841 -18.3263 6.7548 -15.7972 -38.8130 16.0180 10.3709 0.0000 -0.2966 2.5943 -23.9230 -11.5998 14.1652 25.2970 8.6981 -9.2911 -2.4259
 6.1202 38.1171 -10.9008 13.3938 4.7122 1.6389 -19.7975 5.0134 10.4216 24.8460 -3.3517 -11.2986 8.1268 -16.9527 -6.9651 -28.5312 19.1109 -7.2318 11.9913 8.1712 -17.3907 -5.3707 -0.4093 -3.9492 -0.5854 -1.4071 22.6015 6.8782 -7.8554 -16.6028 -8.9377 -1.3762 -0.0156 0.3845 -18.3020 6.7321 -15.8045 -38.7841 16.0761 10.4424 -0.0000 -0.2966 2.5925 -23.8851 -11.6142 14.1813 25.2814 8.6175 -9.2646 -2.3852
 6.1192 38.1174 -10.9006 13.3962 4.7157 1.6368 -19.7888 5.0034 10.4214 24.8189 -3.3412 -11.3021 8.1256 -16.9533 -6.9606 -28.5305 19.1080 -7.2272 12.0040 8.1507 -17.3588 -5.3725 -0.4040 -4.0151 -0.5847 -1.3986 22.6068 6.8753 -7.8427 -16.5626 -8.9299 -1.3722 -0.0151 0.3738 -18.2712 6.7078 -15.8116 -38.7788 16.0497 10.4386 -0.0000 -0.3073 2.6600 -23.7378 -11.5900 14.0889 25.2462 8.5713 -9.2691 -2.3880
 6.1186 38.1175 -10.9002 13.3909 4.7171 1.6390 -19.7797 5.0012 10.4237 24.8111 -3.3394 -11.3052 8.1334 -16.9457 -6.9615 -28.5304 19.1049 -7.2303 12.0063 8.1743 -17.3888 -5.3625 -0.4145 -3.9619 -0.6177 -1.4106 22.6094 6.8751 -7.8162 -16.5684 -8.9012 -1.3590 -0.0153 0.3760 -18.2639 6.7135 -15.7854 -38.7506 16.0091 10.4566 -0.0000 -0.3025 2.6491 -23.8420 -11.5769 14.1515 25.1933 8.5206 -9.2711 -2.3733
 6.1179 38.1168 -10.8997 13.3922 4.7028 1.6340 -19.7769 5.0119 10.4341 24.8112 -3.3503 -11.3102 8.1272 -16.9473 -6.9513 -28.5157 19.1032 -7.2280 12.0104 8.1567 -17.4040 -5.3697 -0.4050 -3.9388 -0.6036 -1.4026 22.5892 6.8840 -7.8227 -16.5583 -8.8792 -1.3592 -0.0156 0.3825 -18.2651 6.7154 -15.8015 -38.7484 16.0036 10.4444 0.0000 -0.3007 2.6342 -23.9777 -11.6492 14.1383 25.2029 9.0803 -9.0529 -2.3881
 6.1172 38.1169 -10.8991 13.3967 4.6963 1.6332 -19.7781 5.0149 10.4322 24.8100 -3.3536 -11.3139 8.1260 -16.9518 -6.9481 -28.5171 19.1010 -7.2288 12.0025 8.1644 -17.4110 -5.3811 -0.3949 -3.9389 -0.5839 -1.3931 22.5912 6.8764 -7.8131 -16.5609 -8.8816 -1.3572 -0.0152 0.3735 -18.2656 6.6996 -15.8092 -38.7383 16.0061 10.4379 -0.0000 -0.3123 2.6910 -23.8209 -11.6203 14.0607 25.1907 9.0071 -9.0423 -2.3893
 6.1168 38.1169 -10.8991 13.3974 4.6936 1.6323 -19.7770 5.0159 10.4335 24.7962 -3.3661 -11.2415 8.2004 -16.9516 -6.9484 -28.5176 19.1011 -7.2316 11.9966 8.1602 -17.4132 -5.3843 -0.3954 -3.9403 -0.5828 -1.3936 22.5952 6.8779 -7.8071 -16.5649 -8.8720 -1.3590 -0.0152 0.3725 -18.2545 6.7025 -15.8054 -38.7266 16.0427 10.4260 -0.0000 -0.3133 2.6978 -23.8136 -11.6283 14.0605 25.1708 9.0189 -9.0190 -2.3759
 6.1173 38.1167 -10.8988 13.3959 4.6988 1.6302 -19.7892 5.0250 10.4248 24.8237 -3.3736 -11.2393 8.2218 -16.9468 -6.9504 -28.5220 19.1004 -7.2320 11.9966 8.1713 -17.4249 -5.3821 -0.4080 -3.9270 -0.5860 -1.4074 22.6088 6.8711 -7.7790 -16.5628 -8.8518 -1.3615 -0.0152 0.3706 -18.2401 6.7372 -15.7951 -38.7602 15.9921 10.3690 0.0000 -0.3003 2.6313 -23.9707 -11.6731 14.1551 25.1460 9.1544 -9.0064 -2.3627
 6.1165 38.1174 -10.8986 13.4024 4.7016 1.6307 -19.7809 5.0155 10.4303 24.7908 -3.3625 -11.2336 8.2069 -16.9498 -6.9509 -28.5222 19.0959 -7.2274 12.0054 8.1609 -17.4026 -5.3861 -0.4140 -3.9904 -0.5901 -1.4107 22.6462 6.8780 -7.7553 -16.5609 -8.8272 -1.3698 -0.0148 0.3664 -18.2329 6.7298 -15.7798 -38.7306 15.9552 10.3749 0.0000 -0.2980 2.6281 -24.0003 -11.6961 14.1693 25.1310 9.1687 -8.9736 -2.3483
 6.1158 38.1168 -10.8987 13.3983 4.7003 1.6318 -19.7754 5.0156 10.4347 24.7883 -3.3660 -11.2429 8.2234 -16.9446 -6.9504 -28.5168 19.0937 -7.2314 12.0040 8.1680 -17.4287 -5.3926 -0.4097 -3.9355 -0.5862 -1.4082 22.6253 6.8745 -7.7531 -16.5651 -8.8172 -1.3656 -0.0149 0.3638 -18.2399 6.7287 -15.7709 -38.7127 15.9197 10.2912 -0.0000 -0.2991 2.6252 -24.0114 -11.7159 14.1725 25.1140 9.2207 -9.0127 -2.3401
 6.1143 38.1167 -10.8986 13.4050 4.6850 1.6328 -19.7748 5.0229 10.4466 24.7817 -3.3668 -11.2482 8.2185 -16.9511 -6.9431 -28.5057 19.0861 -7.2314 11.9987 8.1680 -17.4115 -5.3992 -0.4062 -3.9889 -0.5758 -1.4031 22.6452 6.8631 -7.7267 -16.5552 -8.8149 -1.3636 -0.0145 0.3601 -18.2372 6.7393 -15.7608 -38.6988 15.9354 10.2546 0.0000 -0.2981 2.6254 -23.9743 -11.7174 14.1781 25.1045 9.1417 -9.0885 -2.3307
 6.1149 38.1163 -10.8989 13.3989 4.6857 1.6321 -19.7863 5.0306 10.4360 24.8175 -3.3765 -11.2467 8.2198 -16.9453 -6.9458 -28.5097 19.0888 -7.2365 11.9940 8.1774 -17.4316 -5.3991 -0.4069 -3.9388 -0.5761 -1.4057 22.6179 6.8494 -7.7181 -16.5577 -8.8136 -1.3526 -0.0150 0.3660 -18.2353 6.7612 -15.7637 -38.7265 15.9236 10.2092 0.0000 -0.2977 2.6114 -23.9376 -11.7401 14.1994 25.1225 9.1928 -9.1280 -2.3254
